<?xml version="1.0" standalone="no"?><!DOCTYPE svg PUBLIC "-//W3C//DTD SVG 1.1//EN" "http://www.w3.org/Graphics/SVG/1.1/DTD/svg11.dtd"><svg t="1777261317438" class="icon" viewBox="0 0 1024 1024" version="1.1" xmlns="http://www.w3.org/2000/svg" p-id="24788" data-spm-anchor-id="a313x.search_index.0.i1.73d13a81EoCnmy" xmlns:xlink="http://www.w3.org/1999/xlink" width="256" height="256"><path d="M804.571429 530.285714l0-274.285714q0-14.848-10.825143-25.746286t-25.746286-10.825143l-274.285714 0q-23.990857 0-33.718857 22.308571-9.728 23.405714 7.972571 40.009143l82.285714 82.285714-305.152 305.152q-10.825143 10.825143-10.825143 25.746286t10.825143 25.746286l58.294857 58.294857q10.825143 10.825143 25.746286 10.825143t25.746286-10.825143l305.152-305.152 82.285714 82.285714q10.313143 10.825143 25.746286 10.825143 6.875429 0 14.262857-2.852571 22.308571-9.728 22.308571-33.718857zM950.857143 237.714286l0 548.571429q0 68.022857-48.274286 116.297143t-116.297143 48.274286l-548.571429 0q-68.022857 0-116.297143-48.274286t-48.274286-116.297143l0-548.571429q0-68.022857 48.274286-116.297143t116.297143-48.274286l548.571429 0q68.022857 0 116.297143 48.274286t48.274286 116.297143z" fill="#2c2c2c" p-id="24789" data-spm-anchor-id="a313x.search_index.0.i0.73d13a81EoCnmy" class="selected"></path></svg>